G04*
G04 #@! TF.GenerationSoftware,Altium Limited,Altium Designer,25.1.2 (22)*
G04*
G04 Layer_Color=16711935*
%FSLAX25Y25*%
%MOIN*%
G70*
G04*
G04 #@! TF.SameCoordinates,B7606435-976A-44DC-911F-35B296C07FD0*
G04*
G04*
G04 #@! TF.FilePolarity,Positive*
G04*
G01*
G75*
%ADD14C,0.01000*%
D14*
X0Y39370D02*
X13Y38373D01*
X51Y37376D01*
X114Y36381D01*
X202Y35387D01*
X316Y34396D01*
X454Y33408D01*
X618Y32424D01*
X806Y31445D01*
X1019Y30470D01*
X1257Y29502D01*
X1519Y28539D01*
X1805Y27584D01*
X2116Y26636D01*
X2451Y25697D01*
X2809Y24766D01*
X3191Y23844D01*
X3596Y22933D01*
X4023Y22032D01*
X4474Y21142D01*
X4947Y20264D01*
X5442Y19398D01*
X5959Y18545D01*
X6497Y17705D01*
X7057Y16879D01*
X7637Y16068D01*
X8237Y15271D01*
X8858Y14491D01*
X9498Y13725D01*
X10157Y12977D01*
X10835Y12245D01*
X11531Y11531D01*
X12245Y10835D01*
X12977Y10157D01*
X13725Y9498D01*
X14491Y8858D01*
X15271Y8237D01*
X16068Y7637D01*
X16879Y7057D01*
X17705Y6497D01*
X18545Y5959D01*
X19398Y5442D01*
X20264Y4947D01*
X21142Y4474D01*
X22032Y4023D01*
X22933Y3596D01*
X23844Y3191D01*
X24766Y2809D01*
X25697Y2451D01*
X26636Y2116D01*
X27584Y1805D01*
X28540Y1519D01*
X29502Y1257D01*
X30471Y1019D01*
X31445Y806D01*
X32424Y618D01*
X33408Y454D01*
X34396Y316D01*
X35387Y202D01*
X36381Y114D01*
X37376Y51D01*
X38373Y13D01*
X39370Y0D01*
X295276D02*
X296273Y13D01*
X297270Y51D01*
X298265Y114D01*
X299259Y202D01*
X300250Y316D01*
X301237Y454D01*
X302221Y618D01*
X303201Y806D01*
X304175Y1019D01*
X305144Y1257D01*
X306106Y1519D01*
X307061Y1805D01*
X308009Y2116D01*
X308949Y2451D01*
X309880Y2809D01*
X310801Y3191D01*
X311713Y3596D01*
X312614Y4023D01*
X313504Y4474D01*
X314382Y4947D01*
X315248Y5442D01*
X316101Y5959D01*
X316940Y6497D01*
X317766Y7056D01*
X318578Y7637D01*
X319374Y8237D01*
X320155Y8857D01*
X320920Y9498D01*
X321669Y10157D01*
X322400Y10835D01*
X323114Y11531D01*
X323811Y12245D01*
X324488Y12977D01*
X325148Y13725D01*
X325788Y14490D01*
X326408Y15271D01*
X327009Y16068D01*
X327589Y16879D01*
X328148Y17705D01*
X328687Y18544D01*
X329203Y19398D01*
X329698Y20263D01*
X330171Y21141D01*
X330622Y22031D01*
X331050Y22932D01*
X331455Y23844D01*
X331837Y24765D01*
X332195Y25696D01*
X332529Y26636D01*
X332840Y27584D01*
X333126Y28539D01*
X333389Y29501D01*
X333627Y30470D01*
X333840Y31444D01*
X334028Y32424D01*
X334192Y33408D01*
X334330Y34396D01*
X334444Y35386D01*
X334532Y36380D01*
X334595Y37376D01*
X334633Y38372D01*
X334646Y39369D01*
Y196850D02*
X334633Y197848D01*
X334595Y198845D01*
X334532Y199840D01*
X334444Y200833D01*
X334330Y201824D01*
X334192Y202812D01*
X334028Y203796D01*
X333840Y204776D01*
X333627Y205750D01*
X333389Y206719D01*
X333127Y207681D01*
X332840Y208636D01*
X332529Y209584D01*
X332195Y210524D01*
X331837Y211455D01*
X331455Y212376D01*
X331050Y213288D01*
X330622Y214189D01*
X330172Y215079D01*
X329699Y215957D01*
X329204Y216823D01*
X328687Y217676D01*
X328149Y218515D01*
X327589Y219341D01*
X327009Y220153D01*
X326409Y220949D01*
X325788Y221730D01*
X325148Y222495D01*
X324489Y223243D01*
X323811Y223975D01*
X323114Y224689D01*
X322400Y225385D01*
X321669Y226063D01*
X320920Y226723D01*
X320155Y227363D01*
X319374Y227983D01*
X318578Y228584D01*
X317766Y229164D01*
X316941Y229723D01*
X316101Y230262D01*
X315248Y230778D01*
X314382Y231274D01*
X313504Y231747D01*
X312614Y232197D01*
X311713Y232625D01*
X310801Y233030D01*
X309880Y233412D01*
X308949Y233770D01*
X308009Y234104D01*
X307062Y234415D01*
X306106Y234701D01*
X305144Y234964D01*
X304175Y235201D01*
X303201Y235415D01*
X302221Y235603D01*
X301237Y235767D01*
X300250Y235905D01*
X299259Y236018D01*
X298265Y236107D01*
X297270Y236170D01*
X296273Y236208D01*
X295276Y236221D01*
X39370D02*
X38373Y236208D01*
X37376Y236170D01*
X36381Y236107D01*
X35387Y236018D01*
X34396Y235905D01*
X33408Y235767D01*
X32424Y235603D01*
X31445Y235415D01*
X30470Y235201D01*
X29502Y234964D01*
X28539Y234701D01*
X27584Y234415D01*
X26636Y234104D01*
X25697Y233770D01*
X24766Y233412D01*
X23844Y233030D01*
X22933Y232625D01*
X22032Y232197D01*
X21142Y231747D01*
X20264Y231274D01*
X19398Y230778D01*
X18545Y230262D01*
X17705Y229723D01*
X16879Y229164D01*
X16068Y228584D01*
X15271Y227983D01*
X14491Y227363D01*
X13725Y226723D01*
X12977Y226063D01*
X12245Y225385D01*
X11531Y224689D01*
X10835Y223975D01*
X10157Y223243D01*
X9498Y222495D01*
X8858Y221730D01*
X8237Y220949D01*
X7637Y220153D01*
X7057Y219341D01*
X6497Y218515D01*
X5959Y217676D01*
X5442Y216823D01*
X4947Y215957D01*
X4474Y215079D01*
X4023Y214189D01*
X3596Y213288D01*
X3191Y212376D01*
X2809Y211455D01*
X2451Y210524D01*
X2116Y209584D01*
X1805Y208636D01*
X1519Y207681D01*
X1257Y206719D01*
X1019Y205750D01*
X806Y204776D01*
X618Y203796D01*
X454Y202812D01*
X316Y201824D01*
X202Y200833D01*
X114Y199840D01*
X51Y198844D01*
X13Y197848D01*
X0Y196850D01*
Y39370D02*
Y196850D01*
X39370Y0D02*
X295276D01*
X334646Y39370D02*
Y196850D01*
X39370Y236221D02*
X295276D01*
M02*
