M48
;Layer_Color=9474304
;FILE_FORMAT=2:4
INCH,TZ
;TYPE=PLATED
T01F00S00C0.0259
T02F00S00C0.0276
T03F00S00C0.0315
T05F00S00C0.0354
T06F00S00C0.0400
T07F00S00C0.0402
T08F00S00C0.0488
;TYPE=NON_PLATED
T09F00S00C0.0787
T10F00S00C0.1181
%
T01
X5906Y9843
Y11764
T02
X5906Y5413
Y6398
Y15256
Y16240
T03
X18104Y4374
Y5374
X25204
Y4374
Y6374
Y7374
Y8374
Y9374
Y10374
Y11374
X27106Y10500
X27894
X25534Y19460
X24746
X18104Y11374
Y10374
Y9374
Y8374
Y7374
Y6374
T05
X8811Y4843
X11811
X13780Y4831
X15748
X11811Y5843
Y6843
Y7843
Y8843
Y9843
Y10843
Y11843
Y12843
Y13843
Y14843
Y15843
Y16843
Y17843
X8811
Y16843
Y15843
Y14843
Y13843
Y12843
Y11843
Y10843
Y9843
Y8843
Y7843
Y6843
Y5843
X13780Y10917
X15748
X6980Y19685
X894
X1969Y12886
Y6799
X21957Y22000
X28043
T06
X15717Y13748
X16717
X17717
X18717
X19717
X20717
Y17748
X19717
X18717
X17717
X16717
X15717
T07
X1969Y2937
Y3937
Y4937
X5374Y1969
X6374
X7374
X8374
X9374
X10374
X12850
X13850
X16450
X17450
X31496Y2937
Y3937
Y4937
Y11311
Y12311
Y19185
Y20185
X1969Y16248
Y15248
X9343Y21654
X10343
X13280
X14280
X16940Y21620
X17940
X18940
X19940
T08
X27559Y5874
Y6874
Y7874
X25620Y14500
Y15500
Y16500
T09
X14217Y15748
X21217
T10
X3937Y3937
X29528
X3937Y21654
X29528
M30
