G04*
G04 #@! TF.GenerationSoftware,Altium Limited,Altium Designer,25.1.2 (22)*
G04*
G04 Layer_Physical_Order=1*
G04 Layer_Color=255*
%FSLAX25Y25*%
%MOIN*%
G70*
G04*
G04 #@! TF.SameCoordinates,B7606435-976A-44DC-911F-35B296C07FD0*
G04*
G04*
G04 #@! TF.FilePolarity,Positive*
G04*
G01*
G75*
%ADD14C,0.01000*%
%ADD33C,0.05512*%
%ADD34R,0.05512X0.05512*%
%ADD36C,0.04724*%
%ADD37R,0.04724X0.04724*%
%ADD38R,0.05512X0.05512*%
%ADD39C,0.02000*%
%ADD40C,0.03000*%
G04:AMPARAMS|DCode=41|XSize=59.84mil|YSize=59.84mil|CornerRadius=14.96mil|HoleSize=0mil|Usage=FLASHONLY|Rotation=180.000|XOffset=0mil|YOffset=0mil|HoleType=Round|Shape=RoundedRectangle|*
%AMROUNDEDRECTD41*
21,1,0.05984,0.02992,0,0,180.0*
21,1,0.02992,0.05984,0,0,180.0*
1,1,0.02992,-0.01496,0.01496*
1,1,0.02992,0.01496,0.01496*
1,1,0.02992,0.01496,-0.01496*
1,1,0.02992,-0.01496,-0.01496*
%
%ADD41ROUNDEDRECTD41*%
%ADD42C,0.05984*%
G04:AMPARAMS|DCode=43|XSize=59.84mil|YSize=59.84mil|CornerRadius=14.96mil|HoleSize=0mil|Usage=FLASHONLY|Rotation=90.000|XOffset=0mil|YOffset=0mil|HoleType=Round|Shape=RoundedRectangle|*
%AMROUNDEDRECTD43*
21,1,0.05984,0.02992,0,0,90.0*
21,1,0.02992,0.05984,0,0,90.0*
1,1,0.02992,0.01496,0.01496*
1,1,0.02992,0.01496,-0.01496*
1,1,0.02992,-0.01496,-0.01496*
1,1,0.02992,-0.01496,0.01496*
%
%ADD43ROUNDEDRECTD43*%
%ADD44R,0.05906X0.05906*%
%ADD45C,0.05906*%
%ADD46C,0.07874*%
%ADD47R,0.06000X0.06000*%
%ADD48C,0.06000*%
%ADD49C,0.05150*%
%ADD50R,0.05150X0.05150*%
%ADD51O,0.05512X0.16142*%
%ADD52O,0.05512X0.12205*%
%ADD53O,0.12205X0.05512*%
%ADD54R,0.07323X0.07323*%
%ADD55C,0.07323*%
%ADD56R,0.05118X0.05118*%
%ADD57C,0.05118*%
%ADD58C,0.03965*%
D14*
X59055Y152559D02*
X59055Y152559D01*
X59055Y63976D02*
X59055Y63976D01*
D33*
X19685Y67992D02*
D03*
X137795Y48307D02*
D03*
X157480D02*
D03*
X280433Y220000D02*
D03*
X8937Y196850D02*
D03*
D34*
X19685Y128858D02*
D03*
X137795Y109173D02*
D03*
X157480D02*
D03*
D36*
X59055Y162402D02*
D03*
Y54134D02*
D03*
D37*
Y152559D02*
D03*
Y63976D02*
D03*
D38*
X219567Y220000D02*
D03*
X69803Y196850D02*
D03*
D39*
X164500Y19685D02*
Y47205D01*
X181035Y63740D01*
X174500Y19685D02*
Y37205D01*
X181035Y43740D01*
X109916Y38269D02*
X128500Y19685D01*
X109916Y38269D02*
Y106619D01*
X199400Y189715D02*
Y216200D01*
X187165Y177480D02*
X199400Y189715D01*
X189400D02*
Y216200D01*
X177165Y177480D02*
X189400Y189715D01*
X298583Y201850D02*
X314961D01*
X280433Y220000D02*
X298583Y201850D01*
X88110Y128425D02*
X109916Y106619D01*
X181035Y93740D02*
X185610Y98315D01*
Y105635D01*
X182930Y108315D02*
X185610Y105635D01*
X170362Y108315D02*
X182930D01*
X166464Y104417D02*
X170362Y108315D01*
X153896Y104417D02*
X166464D01*
X137029Y121284D02*
X153896Y104417D01*
X137029Y121284D02*
Y126511D01*
X120162Y143378D02*
X137029Y126511D01*
X113157Y143378D02*
X120162D01*
X88110Y168425D02*
X113157Y143378D01*
X88110Y158425D02*
X113063Y133472D01*
X120067D01*
X137795Y115744D01*
Y109173D02*
Y115744D01*
X259936Y29370D02*
X314961D01*
X220991Y68315D02*
X259936Y29370D01*
X177488Y68315D02*
X220991D01*
X157480Y48307D02*
X177488Y68315D01*
X173935Y20250D02*
X174500Y19685D01*
X181035Y43740D02*
X181600Y43175D01*
X159450Y82155D02*
X181035Y103740D01*
X159450Y69962D02*
Y82155D01*
X137795Y48307D02*
X159450Y69962D01*
X118110Y168425D02*
X178110D01*
X187165Y177480D01*
X118110Y178425D02*
X124055Y172480D01*
X172165D01*
X177165Y177480D01*
X92663Y215773D02*
X93425Y216535D01*
X88726Y215773D02*
X92663D01*
X69803Y196850D02*
X88726Y215773D01*
X53740Y19685D02*
X70000Y35945D01*
Y60000D01*
X88110Y78110D01*
Y78425D01*
X63740Y19685D02*
X75000Y30945D01*
Y55315D01*
X88110Y68425D01*
X73740Y19685D02*
X80000Y25945D01*
Y50315D01*
X88110Y58425D01*
X69772Y166764D02*
X88110Y148425D01*
X33968Y166764D02*
X69772D01*
X19685Y152480D02*
X33968Y166764D01*
X74804Y131731D02*
X88110Y118425D01*
X74804Y131731D02*
Y144363D01*
X62246Y156921D02*
X74804Y144363D01*
X47748Y156921D02*
X62246D01*
X19685Y128858D02*
X47748Y156921D01*
X59055Y117638D02*
X59055Y117638D01*
Y152559D01*
X68898Y117638D02*
X88110Y98425D01*
X59055Y117638D02*
X68898D01*
X59055Y90000D02*
X60630Y88425D01*
X88110D01*
X59055Y90000D02*
Y98425D01*
Y63976D02*
Y90000D01*
X59055Y98425D02*
X59055Y98425D01*
X19685Y49370D02*
Y67992D01*
X83740Y19685D02*
X88110Y24055D01*
Y48425D01*
D40*
X286835Y151236D02*
X314961Y123110D01*
X279932Y151236D02*
X286835D01*
X278772Y152396D02*
X279932Y151236D01*
X278772Y152396D02*
Y156500D01*
X203367Y220000D02*
X219567D01*
X201675Y221692D02*
X203367Y220000D01*
X184892Y221692D02*
X201675D01*
X179400Y216200D02*
X184892Y221692D01*
X271063Y105000D02*
Y130137D01*
X256200Y145000D02*
X271063Y130137D01*
X269429Y103366D02*
X271063Y105000D01*
X269429Y64902D02*
Y103366D01*
Y64902D02*
X275590Y58740D01*
X203854Y184169D02*
X247463D01*
X197165Y177480D02*
X203854Y184169D01*
X247463D02*
Y194600D01*
Y173737D02*
Y184169D01*
Y173737D02*
X256200Y165000D01*
X162047Y113740D02*
X181035D01*
X157480Y109173D02*
X162047Y113740D01*
X313469Y111618D02*
X314961Y113110D01*
X308469Y111618D02*
X313469D01*
X275590Y78740D02*
X308469Y111618D01*
X83740Y19685D02*
Y20493D01*
X92854Y215964D02*
X93425Y216535D01*
D41*
X103425D02*
D03*
X169400Y216200D02*
D03*
X132795Y216535D02*
D03*
X53740Y19685D02*
D03*
X128500D02*
D03*
X164500D02*
D03*
D42*
X93425Y216535D02*
D03*
X19685Y162480D02*
D03*
X179400Y216200D02*
D03*
X189400D02*
D03*
X199400D02*
D03*
X142795Y216535D02*
D03*
X314961Y191850D02*
D03*
X19685Y39370D02*
D03*
Y29370D02*
D03*
X314961Y39370D02*
D03*
Y49370D02*
D03*
Y123110D02*
D03*
X73740Y19685D02*
D03*
X63740D02*
D03*
X83740D02*
D03*
X93740D02*
D03*
X103740D02*
D03*
X138500D02*
D03*
X174500D02*
D03*
D43*
X19685Y152480D02*
D03*
X314961Y201850D02*
D03*
X19685Y49370D02*
D03*
X314961Y29370D02*
D03*
Y113110D02*
D03*
D44*
X88110Y178425D02*
D03*
D45*
Y168425D02*
D03*
Y158425D02*
D03*
Y148425D02*
D03*
Y138425D02*
D03*
Y128425D02*
D03*
Y118425D02*
D03*
Y108425D02*
D03*
Y98425D02*
D03*
Y88425D02*
D03*
Y78425D02*
D03*
Y68425D02*
D03*
Y58425D02*
D03*
Y48425D02*
D03*
X118110Y178425D02*
D03*
Y168425D02*
D03*
Y158425D02*
D03*
Y148425D02*
D03*
Y138425D02*
D03*
Y128425D02*
D03*
Y118425D02*
D03*
Y108425D02*
D03*
Y98425D02*
D03*
Y88425D02*
D03*
Y78425D02*
D03*
Y68425D02*
D03*
Y58425D02*
D03*
Y48425D02*
D03*
D46*
X142165Y157480D02*
D03*
X212165D02*
D03*
X39370Y39370D02*
D03*
X295276D02*
D03*
Y216535D02*
D03*
X39370D02*
D03*
D47*
X207165Y137480D02*
D03*
Y177480D02*
D03*
D48*
X197165Y137480D02*
D03*
X187165D02*
D03*
X177165D02*
D03*
X167165D02*
D03*
X157165D02*
D03*
X197165Y177480D02*
D03*
X187165D02*
D03*
X177165D02*
D03*
X167165D02*
D03*
X157165D02*
D03*
D49*
X181035Y83740D02*
D03*
Y73740D02*
D03*
X252035Y83740D02*
D03*
Y73740D02*
D03*
X181035Y63740D02*
D03*
Y93740D02*
D03*
X252035D02*
D03*
Y63740D02*
D03*
X181035Y103740D02*
D03*
X252035D02*
D03*
X181035Y53740D02*
D03*
X252035D02*
D03*
Y113740D02*
D03*
X181035Y43740D02*
D03*
X252035D02*
D03*
D50*
X181035Y113740D02*
D03*
D51*
X278772Y156500D02*
D03*
D52*
X302000D02*
D03*
D53*
X289795Y175004D02*
D03*
D54*
X256200Y145000D02*
D03*
X275590Y78740D02*
D03*
D55*
X256200Y155000D02*
D03*
Y165000D02*
D03*
X275590Y68740D02*
D03*
Y58740D02*
D03*
D56*
X247463Y194600D02*
D03*
X271063Y105000D02*
D03*
D57*
X255337Y194600D02*
D03*
X278937Y105000D02*
D03*
D58*
X59055Y117638D02*
D03*
Y98425D02*
D03*
M02*
